<svg xmlns="http://www.w3.org/2000/svg" width="176" height="26" fill="none"><path fill="#252420" d="M9.788 6.313 4.898 25H.068l7.11-22.75h3.015l-.406 4.063ZM13.648 25 8.724 6.312 8.272 2.25h3.063L18.506 25h-4.859Zm.171-8.484v3.797H3.553v-3.797H13.82ZM24.835.984V25H20.46V.984h4.375Zm8.89 7.11L27.772 16.5l-3.578 4.016-1.547-3.328 2.75-4.016 3.11-5.078h5.218ZM29.163 25l-3.688-7.766 3.016-2.78L34.178 25h-5.015Zm14.062-3.89v-7.813c0-.51-.062-.917-.187-1.219-.115-.302-.292-.52-.531-.656-.23-.146-.51-.219-.844-.219-.375 0-.688.078-.938.235-.25.156-.437.38-.562.671-.115.292-.172.641-.172 1.047H35.6c0-.729.14-1.416.421-2.062a4.892 4.892 0 0 1 1.235-1.719c.552-.5 1.208-.89 1.968-1.172.76-.281 1.615-.422 2.563-.422 1.125 0 2.125.193 3 .578a4.466 4.466 0 0 1 2.078 1.797c.51.823.766 1.89.766 3.203v7.532c0 .948.046 1.718.14 2.312.104.594.255 1.104.453 1.531V25H43.82c-.198-.469-.349-1.052-.453-1.75a16.305 16.305 0 0 1-.14-2.14Zm.532-6.438.015 2.625h-1.61c-.416 0-.78.068-1.093.203a2.1 2.1 0 0 0-.766.578c-.208.24-.364.521-.468.844a3.68 3.68 0 0 0-.141 1.031c0 .406.057.75.172 1.031.114.282.286.495.516.641.229.146.5.219.812.219.48 0 .896-.1 1.25-.297.354-.198.615-.438.781-.719.177-.281.235-.541.172-.781l1 1.703a7.73 7.73 0 0 1-.515 1.203 5.087 5.087 0 0 1-.797 1.156 3.858 3.858 0 0 1-1.203.875c-.47.22-1.026.328-1.672.328a5.029 5.029 0 0 1-2.485-.625c-.75-.416-1.343-1-1.781-1.75-.427-.75-.64-1.64-.64-2.671 0-.854.135-1.625.406-2.313a4.554 4.554 0 0 1 1.25-1.765c.552-.49 1.25-.865 2.093-1.125.844-.26 1.834-.391 2.97-.391h1.733Zm15.296 6.594V1h4.391v24l-3.969.016-.422-3.75Zm-8.765-4.125v-1.125c0-1.375.114-2.578.344-3.61.24-1.031.593-1.89 1.062-2.578.469-.687 1.042-1.198 1.719-1.531.687-.344 1.474-.516 2.36-.516.801 0 1.504.203 2.108.61.615.395 1.136.953 1.563 1.671.427.72.77 1.568 1.031 2.547.26.98.443 2.053.547 3.22v1.624a20.666 20.666 0 0 1-.578 3.094c-.25.958-.594 1.791-1.031 2.5-.427.708-.943 1.265-1.547 1.672-.604.396-1.307.593-2.11.593-.885 0-1.671-.177-2.359-.53-.677-.355-1.25-.876-1.719-1.563-.458-.698-.807-1.552-1.046-2.563-.23-1.02-.344-2.192-.344-3.515Zm4.375-1.125v1.125c0 .791.036 1.474.11 2.047.082.562.213 1.026.39 1.39.187.354.432.62.734.797.302.167.677.25 1.125.25.584 0 1.057-.146 1.422-.438.365-.302.635-.713.813-1.234.187-.531.291-1.14.312-1.828v-2.953a7.52 7.52 0 0 0-.203-1.547 3.888 3.888 0 0 0-.484-1.172 2.237 2.237 0 0 0-.782-.75 2.063 2.063 0 0 0-1.062-.265c-.438 0-.813.088-1.125.265-.302.177-.542.453-.719.828-.177.365-.313.839-.406 1.422-.084.573-.125 1.26-.125 2.063Zm18.89 9.297c-1.156 0-2.182-.178-3.078-.532a6.086 6.086 0 0 1-2.25-1.531c-.614-.677-1.083-1.495-1.406-2.453-.323-.959-.484-2.052-.484-3.281v-1.391c0-1.375.156-2.578.468-3.61.313-1.041.756-1.916 1.329-2.624a5.249 5.249 0 0 1 2.109-1.579c.844-.354 1.797-.53 2.86-.53 1.062 0 1.994.176 2.796.53a4.88 4.88 0 0 1 2.016 1.563c.531.688.932 1.542 1.203 2.563.27 1.02.406 2.208.406 3.562v2H68.194v-3.078h7.031v-.39c0-.688-.073-1.261-.218-1.72-.146-.468-.376-.817-.688-1.046-.313-.23-.73-.344-1.25-.344-.438 0-.807.088-1.11.265-.301.178-.541.454-.718.829-.177.375-.307.864-.39 1.468a15.676 15.676 0 0 0-.126 2.141v1.39c0 .782.068 1.438.203 1.97.136.52.334.947.594 1.28.271.323.6.558.984.704.386.135.834.203 1.344.203.771 0 1.464-.136 2.078-.406a4.79 4.79 0 0 0 1.594-1.141l1.75 2.656c-.302.396-.719.792-1.25 1.188-.531.396-1.166.718-1.906.968s-1.594.375-2.563.375Zm12.907-13.72V25h-4.391V8.094h4.125l.266 3.5Zm-.625 4.376L84.632 16c-.021-1.188.083-2.281.312-3.281.23-1 .573-1.87 1.031-2.61.469-.74 1.058-1.312 1.766-1.718.708-.407 1.536-.61 2.484-.61.615 0 1.183.115 1.703.344.521.219.974.568 1.36 1.047.385.469.682 1.083.89 1.844.209.75.313 1.65.313 2.703V25h-4.375V14.25c0-.75-.073-1.323-.219-1.719-.146-.406-.354-.687-.625-.844-.27-.166-.604-.25-1-.25a1.8 1.8 0 0 0-1.094.344c-.312.23-.567.552-.765.969a6.158 6.158 0 0 0-.438 1.438c-.093.552-.14 1.145-.14 1.78Zm8.234-.438-1.578.203a12.87 12.87 0 0 1 .297-3.109c.219-.969.557-1.813 1.015-2.531.459-.73 1.032-1.297 1.72-1.703.697-.407 1.504-.61 2.421-.61.688 0 1.313.115 1.875.344.563.23 1.042.599 1.438 1.11.406.5.713 1.16.921 1.984.219.823.329 1.823.329 3V25h-4.391V14.234c0-.76-.073-1.343-.219-1.75-.146-.406-.354-.682-.625-.828-.27-.146-.594-.219-.969-.219a1.61 1.61 0 0 0-.984.313c-.27.208-.5.5-.688.875a4.74 4.74 0 0 0-.421 1.297 8.567 8.567 0 0 0-.141 1.61Z"/><path fill="#FF7500" d="M110.1 11.703V25h-4.39V8.094h4.109l.281 3.61Zm-.656 4.266-1.172.031c-.021-1.27.099-2.412.36-3.422.27-1.01.651-1.87 1.14-2.578.5-.719 1.094-1.266 1.781-1.64.698-.386 1.474-.579 2.329-.579a4.56 4.56 0 0 1 1.796.344 3.52 3.52 0 0 1 1.422 1.094c.396.5.703 1.166.922 2 .219.823.328 1.833.328 3.031V25h-4.39V14.219c0-.73-.073-1.292-.219-1.688-.146-.406-.365-.687-.656-.844-.292-.166-.657-.25-1.094-.25-.417 0-.787.12-1.109.36-.323.229-.594.547-.813.953-.208.406-.37.885-.484 1.438a8.794 8.794 0 0 0-.141 1.78Zm19.563 5.14v-7.812c0-.51-.063-.917-.188-1.219-.115-.302-.292-.52-.531-.656-.229-.146-.511-.219-.844-.219-.375 0-.687.078-.937.235-.25.156-.438.38-.563.671-.115.292-.172.641-.172 1.047h-4.39c0-.729.14-1.416.421-2.062a4.899 4.899 0 0 1 1.235-1.719c.552-.5 1.208-.89 1.969-1.172.76-.281 1.614-.422 2.562-.422 1.125 0 2.125.193 3 .578a4.464 4.464 0 0 1 2.078 1.797c.511.823.766 1.89.766 3.203v7.532c0 .948.047 1.718.14 2.312.105.594.256 1.104.454 1.531V25H129.6c-.198-.469-.349-1.052-.453-1.75a16.253 16.253 0 0 1-.14-2.14Zm.531-6.437.015 2.625h-1.609c-.417 0-.781.068-1.094.203a2.097 2.097 0 0 0-.765.578c-.209.24-.365.521-.469.844a3.672 3.672 0 0 0-.141 1.031c0 .406.058.75.172 1.031.115.282.287.495.516.641.229.146.5.219.812.219.479 0 .896-.1 1.25-.297.354-.198.615-.438.782-.719.177-.281.234-.541.171-.781l1 1.703a7.703 7.703 0 0 1-.515 1.203 5.107 5.107 0 0 1-.797 1.156 3.86 3.86 0 0 1-1.203.875c-.469.22-1.026.328-1.672.328a5.028 5.028 0 0 1-2.484-.625c-.75-.416-1.344-1-1.782-1.75-.427-.75-.64-1.64-.64-2.671 0-.854.135-1.625.406-2.313a4.553 4.553 0 0 1 1.25-1.765c.552-.49 1.25-.865 2.094-1.125.843-.26 1.833-.391 2.968-.391h1.735Zm14.609 5.765c0-.291-.099-.552-.297-.78-.198-.23-.51-.464-.937-.704a15.55 15.55 0 0 0-1.703-.828 18.043 18.043 0 0 1-2.047-.969 7.22 7.22 0 0 1-1.516-1.11 4.122 4.122 0 0 1-.922-1.39c-.208-.52-.312-1.114-.312-1.781 0-.719.13-1.38.39-1.984a4.777 4.777 0 0 1 1.157-1.61c.5-.469 1.109-.833 1.828-1.094.729-.27 1.547-.406 2.453-.406 1.271 0 2.359.224 3.266.672.916.438 1.619 1.052 2.109 1.844.489.791.734 1.713.734 2.765h-4.375a2.71 2.71 0 0 0-.172-1 1.397 1.397 0 0 0-.562-.703c-.25-.166-.589-.25-1.016-.25-.312 0-.593.068-.843.204-.24.135-.433.317-.579.546-.135.22-.203.48-.203.782 0 .229.047.432.141.609.104.177.266.349.484.516.219.166.511.343.875.53.375.178.834.376 1.375.595 1.125.416 2.047.864 2.766 1.343.729.48 1.271 1.042 1.625 1.688.354.635.531 1.422.531 2.36 0 .75-.146 1.431-.437 2.046a4.462 4.462 0 0 1-1.235 1.594c-.541.448-1.192.791-1.953 1.031-.75.24-1.588.36-2.515.36-1.365 0-2.516-.271-3.454-.813-.937-.542-1.645-1.234-2.125-2.078-.479-.854-.718-1.74-.718-2.656h4.156c.021.562.125 1.005.312 1.328.198.312.464.531.797.656.334.125.703.188 1.11.188.406 0 .739-.053 1-.157.27-.114.474-.286.609-.515.135-.24.203-.516.203-.828ZM155.444 1v24h-4.375V1h4.375Zm-.625 14.969-1.187.031c0-1.188.119-2.281.359-3.281.25-1 .609-1.87 1.078-2.61.469-.74 1.036-1.312 1.703-1.718a4.262 4.262 0 0 1 2.235-.61c.697 0 1.333.12 1.906.36s1.067.614 1.484 1.125c.427.51.755 1.182.985 2.015.229.834.343 1.85.343 3.047V25h-4.39V14.297c0-.73-.073-1.302-.219-1.719-.146-.416-.365-.708-.656-.875-.292-.177-.657-.265-1.094-.265-.469 0-.87.12-1.203.359a2.45 2.45 0 0 0-.781.953 5.312 5.312 0 0 0-.438 1.438 11.996 11.996 0 0 0-.125 1.78Zm16.484-4.11V25h-4.375V8.094h4.125l.25 3.765Zm3.985-3.89-.063 4.36a5.54 5.54 0 0 0-.718-.095 9.479 9.479 0 0 0-.719-.03c-.49 0-.906.077-1.25.233a2.09 2.09 0 0 0-.86.672c-.218.292-.385.657-.5 1.094a6.952 6.952 0 0 0-.203 1.485l-.828-.313c0-1.104.083-2.115.25-3.031.177-.927.438-1.73.781-2.406.344-.688.756-1.22 1.235-1.594a2.651 2.651 0 0 1 1.656-.563c.208 0 .427.021.656.063.24.031.427.073.563.125Z"/></svg>